<?xml version="1.0" standalone="no"?>
<!DOCTYPE svg PUBLIC "-//W3C//DTD SVG 20010904//EN"
 "http://www.w3.org/TR/2001/REC-SVG-20010904/DTD/svg10.dtd">
<svg version="1.0" xmlns="http://www.w3.org/2000/svg"
 width="512.000000pt" height="512.000000pt" viewBox="0 0 512.000000 512.000000"
 preserveAspectRatio="xMidYMid meet">
<metadata>
Created by potrace 1.11, written by Peter Selinger 2001-2013
</metadata>
<g transform="translate(0.000000,512.000000) scale(0.100000,-0.100000)"
fill="#000000" stroke="none">
<path d="M367 3042 c-10 -10 -17 -28 -17 -40 0 -50 75 -72 104 -30 21 30 20
44 -4 68 -25 25 -62 26 -83 2z"/>
<path d="M4400 2675 l0 -365 40 0 40 0 0 104 c0 101 1 105 26 125 15 12 30 21
33 21 3 0 50 -56 104 -125 l98 -125 56 0 55 0 -34 43 c-152 187 -208 261 -206
268 2 5 52 60 111 124 l108 115 -48 0 -48 0 -127 -127 -128 -128 0 218 0 217
-40 0 -40 0 0 -365z"/>
<path d="M368 2548 c-2 -172 -7 -321 -12 -330 -4 -9 -23 -22 -42 -28 -31 -11
-34 -15 -34 -50 l0 -39 38 6 c60 9 92 31 113 76 17 38 19 69 19 360 l0 317
-39 0 -40 0 -3 -312z"/>
<path d="M690 2838 c-57 -31 -90 -79 -90 -130 0 -86 47 -128 175 -160 103 -25
135 -47 135 -92 0 -41 -25 -65 -80 -77 -73 -16 -131 6 -165 64 -8 15 -16 16
-47 7 -35 -10 -37 -12 -27 -38 29 -76 111 -117 218 -110 118 9 191 68 191 157
0 88 -43 126 -179 161 -123 31 -148 53 -128 112 9 29 60 58 101 58 40 0 90
-24 109 -53 15 -23 20 -25 48 -17 18 5 34 11 36 14 10 10 -29 67 -64 93 -31
24 -47 28 -112 31 -65 3 -83 0 -121 -20z"/>
<path d="M1130 2586 l0 -276 40 0 40 0 0 180 c0 204 8 237 62 270 21 12 51 20
81 20 l47 0 0 40 0 40 -45 0 c-53 0 -95 -19 -123 -55 l-21 -26 -3 38 c-3 36
-5 38 -40 41 l-38 3 0 -275z"/>
<path d="M1595 2841 c-38 -17 -105 -81 -105 -101 0 -4 16 -14 36 -20 34 -11
37 -10 66 19 28 28 80 51 119 51 61 0 109 -47 109 -109 0 -35 1 -35 -135 -56
-118 -19 -161 -38 -193 -85 -19 -28 -23 -45 -20 -86 8 -95 78 -154 183 -154
67 0 114 18 143 55 l22 28 0 -37 0 -36 45 0 45 0 0 193 c0 105 -5 209 -11 230
-14 51 -63 104 -107 117 -58 16 -152 12 -197 -9z m220 -367 c-13 -72 -122
-122 -197 -91 -46 19 -60 40 -56 83 4 53 35 72 148 90 52 8 97 18 100 21 8 8
12 -68 5 -103z"/>
<path d="M2060 2586 l0 -276 40 0 40 0 0 183 c0 153 3 187 18 216 40 81 131
101 184 42 l28 -31 0 -205 0 -205 45 0 45 0 0 195 c0 213 5 238 55 265 32 17
92 17 124 1 43 -24 51 -66 51 -271 l0 -190 40 0 40 0 0 213 c0 201 -1 215 -22
257 -28 53 -75 80 -140 80 -60 0 -95 -14 -136 -53 l-33 -32 -21 28 c-28 38
-69 57 -123 57 -62 0 -111 -22 -134 -61 l-20 -32 -3 44 c-3 43 -4 44 -40 47
l-38 3 0 -275z"/>
<path d="M2870 2849 c0 -7 44 -131 97 -276 l98 -264 44 3 44 3 99 264 c54 146
98 268 98 273 0 4 -20 8 -44 8 l-44 0 -72 -210 c-40 -116 -76 -213 -80 -215
-4 -2 -41 91 -81 208 l-74 212 -42 3 c-29 2 -43 -1 -43 -9z"/>
<path d="M3574 2846 c-51 -22 -100 -73 -125 -128 -20 -44 -24 -69 -23 -143 0
-107 23 -166 85 -219 107 -91 306 -68 364 44 20 38 20 38 -21 49 -34 9 -38 8
-73 -30 -36 -37 -40 -39 -102 -39 -47 0 -73 6 -97 20 -34 21 -71 87 -72 128
l0 22 196 0 197 0 -5 73 c-7 110 -55 186 -140 221 -45 19 -142 20 -184 2z
m179 -88 c32 -23 57 -67 57 -103 l0 -25 -151 0 -151 0 6 32 c21 106 150 158
239 96z"/>
<path d="M4030 2586 l0 -276 40 0 40 0 0 180 c0 204 8 237 62 270 21 12 51 20
81 20 l47 0 0 40 0 40 -45 0 c-53 0 -95 -19 -123 -55 l-21 -26 -3 38 c-3 36
-5 38 -40 41 l-38 3 0 -275z"/>
</g>
</svg>
